# This file uses centimeters as units for non-parametric coordinates.

mtllib Rope_low.mtl
g default
v -1.022287 -0.000000 1.858883
v -0.977713 -0.000000 1.858883
v -1.022287 0.038285 1.858883
v -0.977713 0.038285 1.858883
v -1.022287 0.038285 0.619627
v -0.977713 0.038285 0.619627
v -1.022287 0.038285 -0.619627
v -0.977713 0.038285 -0.619627
v -1.022287 0.038285 -1.858883
v -0.977713 0.038285 -1.858883
v -1.022287 -0.000000 -1.858883
v -0.977713 -0.000000 -1.858883
v -1.022287 -0.000000 -0.619627
v -0.977713 -0.000000 -0.619627
v -1.022287 -0.000000 0.619627
v -0.977713 -0.000000 0.619627
vt 0.391528 0.386992
vt 0.096454 0.106950
vt 0.105106 0.097834
vt 0.400179 0.377876
vt 0.686601 0.667033
vt 0.695252 0.657917
vt 0.990326 0.937959
vt 0.981674 0.947075
vt 0.677621 0.676499
vt 0.686272 0.667383
vt 0.981346 0.947426
vt 0.972695 0.956542
vt 0.382547 0.396457
vt 0.391198 0.387341
vt 0.087472 0.116414
vt 0.096124 0.107298
vt 0.371568 0.408024
vt 0.076494 0.127981
vt 0.086567 0.117368
vt 0.381641 0.397410
vt 0.666642 0.688066
vt 0.676715 0.677453
vt 0.961716 0.968109
vt 0.971789 0.957495
vt 0.360589 0.419591
vt 0.065516 0.139549
vt 0.075589 0.128935
vt 0.370662 0.408977
vt 0.655662 0.699632
vt 0.665735 0.689019
vt 0.960809 0.969060
vt 0.950736 0.979674
vt 0.518822 0.696129
vt 0.508497 0.706498
vt 0.499591 0.697630
vt 0.509917 0.687261
vt 0.528067 0.705336
vt 0.517743 0.715705
vt 0.508837 0.706837
vt 0.519162 0.696468
vn 0.651382 0.758388 0.023429
vn -0.651382 0.758388 0.023429
vn -0.651382 -0.758388 0.023429
vn 0.651382 -0.758388 0.023429
vn -0.651561 0.758596 0.000000
vn 0.651561 0.758596 0.000000
vn -0.651561 0.758596 0.000000
vn 0.651561 0.758596 0.000000
vn -0.651382 0.758388 -0.023429
vn 0.651382 0.758388 -0.023429
vn 0.651382 -0.758388 -0.023429
vn -0.651382 -0.758388 -0.023429
vn -0.651561 -0.758596 0.000000
vn 0.651561 -0.758596 0.000000
vn -0.651561 -0.758596 0.000000
vn 0.651561 -0.758596 0.000000
s 1
g Rope_low
usemtl initialShadingGroup
f 4/33/1 3/34/2 1/35/3 2/36/4
f 5/17/5 3/18/2 4/19/1 6/20/6
f 7/21/7 5/17/5 6/20/6 8/22/8
f 9/23/9 7/21/7 8/22/8 10/24/10
f 12/37/11 11/38/12 9/39/9 10/40/10
f 13/25/13 11/26/12 12/27/11 14/28/14
f 15/29/15 13/25/13 14/28/14 16/30/16
f 2/31/4 1/32/3 15/29/15 16/30/16
f 14/1/14 12/2/11 10/3/10 8/4/8
f 16/5/16 14/1/14 8/4/8 6/6/6
f 4/7/1 2/8/4 16/5/16 6/6/6
f 13/9/13 7/10/7 9/11/9 11/12/12
f 15/13/15 5/14/5 7/10/7 13/9/13
f 1/15/3 3/16/2 5/14/5 15/13/15
